# xmcd
#
# Track frame offsets:
#	150
#	12505
#	30269
#	43978
#	59422
#	79593
#	99548
#	117666
#	141689
#	159533
#	177015
#
# Disc length: 2586 seconds
#
# Revision: 0
# Processed by: cddbd v1.5.2PL0 Copyright (c) Steve Scherf et al.
# Submitted via: dBpowerAMP V4.0
#
DISCID=950a180b
DTITLE=Jimmy Barnes - Live at the Basement [Disc One]
DYEAR=2001
DGENRE=Soul
TTITLE0=Respect
TTITLE1=Here I Am Baby
TTITLE2=Ain't Too Proud to Beg
TTITLE3=Money
TTITLE4=What Becomes of the Broken Hearted
TTITLE5=634-5789
TTITLE6=Who's Making Love
TTITLE7=When Something Is Wrong With My Baby
TTITLE8=Show Me
TTITLE9=Chain of Fools
TTITLE10=Higher and Higher
EXTD=This rip is from the original 2CD release.\nLabel: Thames Thomson, Catalogue TMM155
EXTT0=
EXTT1=
EXTT2=
EXTT3=
EXTT4=
EXTT5=
EXTT6=
EXTT7=
EXTT8=
EXTT9=
EXTT10=
PLAYORDER=
